<?xml version="1.0" encoding="utf-8"?>
<!-- Generator: Adobe Illustrator 17.1.0, SVG Export Plug-In . SVG Version: 6.00 Build 0)  -->
<!DOCTYPE svg PUBLIC "-//W3C//DTD SVG 1.1//EN" "http://www.w3.org/Graphics/SVG/1.1/DTD/svg11.dtd">
<svg version="1.1" id="Layer_1" xmlns="http://www.w3.org/2000/svg" xmlns:xlink="http://www.w3.org/1999/xlink" x="0px" y="0px"
	 viewBox="0 0 402.4 116.6" enable-background="new 0 0 402.4 116.6" xml:space="preserve">
<g>
	<path fill="#69B828" d="M153.7,115.3h-3.7l-5.2-10.3l-4.8,10.3h-3.6l-11.9-23.5h5.2l8.4,17l4.1-9.1l-4.1-8h5.3l8.4,17l7.8-17h5.1
		L153.7,115.3z"/>
	<path fill="#69B828" d="M169.3,89.3c-1,0-1.8-0.6-2.2-1.7V84c0.5-1.2,1.3-1.7,2.2-1.7c0.7,0,1.5,0.5,2.4,1.5v4.1
		C170.8,88.8,170,89.3,169.3,89.3z M167.1,115.3V90.8h4.6v24.5H167.1z"/>
	<path fill="#69B828" d="M176.5,115.3V82.7h4.6v32.7H176.5z"/>
	<path fill="#69B828" d="M206.2,115.4V113c-2.2,1.9-5.2,2.8-8.7,2.8c-4,0-7.3-1.3-9.6-3.8c-2.2-2.3-3.3-5.3-3.3-8.9
		c0-3.7,1.1-6.7,3.4-9.1c2.4-2.5,5.6-3.8,9.8-3.8c3.4,0,6.2,0.9,8.5,2.7V82.7h4.6v32.7H206.2z M203.9,96.9c-1.5-1.5-3.7-2.3-6.5-2.3
		c-2.6,0-4.6,0.8-6.1,2.4c-1.5,1.6-2.2,3.7-2.2,6.2c0,2.5,0.7,4.5,2.1,6c1.5,1.6,3.5,2.5,6.2,2.5c2.7,0,4.8-0.8,6.4-2.4
		c1.6-1.6,2.4-3.6,2.4-6.1C206.2,100.5,205.4,98.4,203.9,96.9z"/>
	<path fill="#69B828" d="M216,115.3V82.7h4.6v32.7H216z"/>
	<path fill="#69B828" d="M227.6,89.3c-1,0-1.8-0.6-2.2-1.7V84c0.5-1.2,1.3-1.7,2.2-1.7c0.7,0,1.5,0.5,2.4,1.5v4.1
		C229.2,88.8,228.4,89.3,227.6,89.3z M225.4,115.3V90.8h4.6v24.5H225.4z"/>
	<path fill="#69B828" d="M241.6,92.8v0.4h5.3v4.2h-5.3v17.9H237V97.4h-3.5v-4.2h3.5v-0.4c0-6.4,4.8-9.5,14.4-9.5v4.1
		c-3.7,0-6.3,0.5-7.9,1.4C242.3,89.7,241.6,91,241.6,92.8z"/>
	<path fill="#69B828" d="M253.8,105.4c0.5,4.2,3.4,6.4,8.5,6.4c4.2,0,7-1.8,8.4-5.3h4.8c-1.3,3.9-3.3,6.5-5.7,7.7
		c-2.2,1.1-4.7,1.6-7.6,1.6c-4.3,0-7.5-1.1-9.8-3.4c-2.2-2.1-3.3-5.1-3.3-8.8c0-3.6,1.2-6.5,3.6-8.9c2.4-2.3,5.7-3.5,9.7-3.5
		c4,0,7.2,1,9.6,3.1c2.4,2.1,3.7,4.9,3.7,8.4v2.6L253.8,105.4z M268.5,97.4c-1.5-1.4-3.5-2.1-6.2-2.1c-2.6,0-4.7,0.7-6.2,2.1
		c-1.2,1.1-1.9,2.4-2.3,3.9h16.8C270.4,99.8,269.7,98.4,268.5,97.4z"/>
</g>
<g>
	<path fill="#FFFFFF" d="M287.8,94.5v21.3h-5.1l-0.1-21.3h-5.5v-4.7h5.5v-7.4h5.2v7.4h5.5v4.7H287.8z"/>
	<path fill="#FFFFFF" d="M320.6,112.6c-2.8,2.6-6.5,3.9-11.2,3.9c-4.7,0-8.4-1.3-11.2-3.9c-2.8-2.6-4.1-5.9-4.1-10
		c0-4.1,1.4-7.5,4.2-10.1c2.8-2.6,6.5-3.9,11.2-3.9c4.7,0,8.4,1.3,11.2,3.9c2.8,2.6,4.1,6,4.1,10.1
		C324.8,106.7,323.4,110,320.6,112.6z M316.9,95.8c-1.8-1.7-4.3-2.5-7.5-2.5c-3.2,0-5.7,0.9-7.4,2.6c-1.8,1.7-2.6,4-2.6,6.8
		c0,2.8,0.9,5,2.7,6.7c1.8,1.7,4.3,2.6,7.4,2.6c3.2,0,5.6-0.9,7.4-2.6c1.8-1.7,2.7-3.9,2.7-6.7C319.5,99.7,318.6,97.5,316.9,95.8z"
		/>
	<path fill="#FFFFFF" d="M349.7,116v-1.9c-2.3,1.6-5.2,2.3-8.6,2.3c-3.7,0-6.7-0.8-8.9-2.5c-2.4-1.8-3.6-4.4-3.6-7.7v-17h5.2v16.9
		c0,3.8,2.4,5.7,7.3,5.7c5.7,0,8.6-2.7,8.6-8.2V89.2h5.2V116H349.7z"/>
	<path fill="#FFFFFF" d="M366.8,96.8c-1.5,2.1-2.2,4.8-2.2,8.1v11h-5.2V89.1h5.2v2.5c2.6-2,6.5-3,11.6-3v4.6
		C371.6,93.2,368.4,94.4,366.8,96.8z"/>
	<path fill="#FFFFFF" d="M398,115c-2,1.1-4.7,1.6-7.9,1.6c-8.9,0-13.4-4.1-13.4-12.3h5.3c0,2.8,0.6,4.8,1.8,5.9
		c1.2,1.1,3.3,1.7,6.3,1.7c4.5,0,6.8-1.2,6.8-3.5c0-1.4-1.5-2.4-4.5-3.1c-0.3,0-2.1-0.3-5.5-0.8c-6.1-0.9-9.2-3.4-9.2-7.7
		c0-2.8,1.3-4.9,3.8-6.4c2.1-1.3,4.6-1.9,7.5-1.9c8.6,0,12.9,3.7,13,11.2h-5.4c0-2.4-0.5-4.1-1.6-5.1c-1.1-0.9-3-1.4-5.7-1.4
		c-1.8,0-3.3,0.3-4.5,1c-1.2,0.7-1.7,1.5-1.7,2.6c0,1.3,1.4,2.3,4.3,2.7c0.9,0.2,2.9,0.5,5.7,1c6,0.9,9.1,3.5,9.1,7.8
		C402.4,111.3,400.9,113.5,398,115z"/>
</g>
<g>
	<path fill="#FFFFFF" d="M134,54.7c1.1,9.3,6.7,13.9,16.9,13.9c8.3,0,13.4-2.2,16.3-9.9h9.5c-2.7,8.5-5.9,12.5-10.9,15.3
		c-4.3,2.4-9.3,3.6-15.1,3.6c-8.5,0-15.1-2.5-19.6-7.5c-4.4-4.7-6.5-11.1-6.5-19.3c0-7.8,2.4-14.3,7.2-19.4
		c4.8-5.1,11.3-7.7,19.4-7.7c7.9,0,14.4,2.3,19.2,6.8c4.9,4.6,7.3,10.7,7.3,18.3v5.7L134,54.7z M163.5,37.2c-2.9-3-7.1-4.5-12.3-4.5
		c-5.3,0-9.4,1.5-12.4,4.5c-2.3,2.3-3.8,5.2-4.5,8.5h33.5C167.1,42.4,165.7,39.5,163.5,37.2z"/>
	<path fill="#FFFFFF" d="M183,76.4V2.9h9.2v73.5H183z"/>
	<path fill="#FFFFFF" d="M266.2,76.4v-33c0-3.8-0.8-6.5-2.5-8.2c-1.6-1.7-4.3-2.5-7.9-2.5c-4.1,0-7.3,1.1-9.6,3.3
		c-2.3,2.2-3.4,5.1-3.4,8.7v31.7h-9.2v-33c0-3.8-0.9-6.5-2.5-8.2c-1.7-1.7-4.4-2.5-8.1-2.5c-4.1,0-7.3,1.5-9.6,4.5
		c-2.1,2.7-3.2,6.3-3.2,10.5v28.7h-9.2V24.8h9.2v3.2c3.8-2.8,8.4-4.2,13.8-4.2c6.5,0,11.6,2.2,15.2,6.6c3.7-4.4,9.2-6.6,16.5-6.6
		c6.3,0,11.2,1.6,14.7,4.8c3.4,3.2,5.1,7.8,5.1,14v33.9H266.2z"/>
</g>
<rect x="0" y="0" fill="#69B828" width="115.3" height="114.7"/>
<path fill="#363639" d="M110,76.5c-0.5-3.1-2.7-6-4-9.1c-1.3-3.1-2.7-3.5-3.5-5.3c-0.9-1.8-2.3-4.3-3.1-5.6c-0.9-1.3-1-3.9-1.4-6.5
	c-0.4-2.6-1.4-5.3-1.9-5.6c-0.5-0.3-1.3-1.5-1.5-2.1c-0.2-0.6-1.1-1.7-1.2-2.1c-0.1-0.4-0.8-1.5-0.6-1.4c0.1,0.1,0.4,0.1,0.4,0.1
	c-0.3-0.4-0.8-1-1-2.4c-0.2-1.3-0.4-1.6-1.1-2.7c-0.7-1.1-1.8-3.2-1.7-3.1c0.1,0.1,0.6,0.3,0.4,0.1c-0.1-0.1-0.8-1-0.8-1h0.2
	c-0.1-0.2-0.4-0.8-0.4-0.7c0.1,0.1,0.4,0.1,0.4,0.1c-0.8-0.8-0.5-0.9-1.2-4.8c-0.8-3.9-1.9-8-2.6-9.8c-0.7-1.8-3.6-2.5-4.5-2.9
	c-0.9-0.3-2.8-0.4-3-0.4c-0.2,0-0.1-0.2-0.1-0.2c-0.6,0-1.6,0.1-2.3,0.1c-0.7,0-1.1-0.1-2,0c-0.8,0.2-0.8,0.1-0.8,0.1
	c-1.3,0.1-2.2,0.8-2.9,1c-0.7,0.1-1.1,0.8-2.4,1.2c-1.2,0.4-2.1,1.2-2.3,1.2c-0.2,0-0.5,0.3-1.3,0.2c-0.8-0.1-1.7-0.4-4.2-0.6
	c-2.5-0.2-3.8,1.3-4.2,1.9c-0.4,0.7-0.4,1,0,1c0.3,0,0.5,0,0.9,0.2c3.2,1.6,4.3,1.3,5.2,2c0.7,0.6,1.7,0.9,2.2,1.3
	c0.4,0.4,2.2,0.8,2.9,3c0.7,2.1,2.3,4.7,2.5,5.8c0.2,1.1,0.8,3.3,0.8,3.9c0,0.5,0.3,3.1-0.6,5.3c-0.9,2.2-2.2,7-2.6,8
	c-0.4,1-1.2,5-1.3,5.9c-0.1,0.9-0.8,2.4-1.4,2.8c-0.6,0.5-1.6,2.1-2.4,3.1c-0.9,0.9-2.5,2.5-3.9,4.2c-1.4,1.6-3,3.4-3,3.4
	S54.1,67,53.4,68c0-0.1-0.1-0.2-0.1-0.2c-0.8-1.6-2.1-4.4-2.9-5.6c-0.8-1.1-1-2.5-1.4-4.8c-0.4-2.3-1.3-4.7-1.7-5
	c-0.4-0.3-1.1-1.4-1.4-1.9c-0.2-0.5-1-1.5-1.1-1.9c-0.1-0.3-0.7-1.3-0.6-1.2l-3.5-4.2c0.1,0.1,0.5,0.2,0.4,0.1
	c-0.1-0.1-0.7-0.9-0.7-0.9h0.2c-0.1-0.2-0.4-0.7-0.3-0.6c0.1,0.1,0.4,0.1,0.4,0.1c-0.7-0.7-0.4-0.8-1.1-4.3
	c-0.7-3.5-1.3-5.9-1.9-7.5c-0.6-1.6-2.9-3.2-3.7-3.5c-0.8-0.3-3.3-0.7-3.5-0.7c-0.2,0-0.1-0.2-0.1-0.2c-0.5,0-1.5,0.1-2.1,0.1
	c-0.6,0-1-0.1-1.8,0c-0.8,0.2-0.7,0.1-0.7,0.1c-1.2,0.1-2,0.7-2.6,0.9c-0.7,0.1-1,0.7-2.1,1.1c-1.1,0.4-1.8,1.1-2,1.1
	c-0.2,0-2.2,1-2.9,0.9c-0.7-0.1-2.7,1-4.7,1.1c-2.2,0.1-3.4,2.5-3.8,3.1c-0.3,0.6-0.3,0.9,0,0.9c0.2,0,0.4,0.2,0.8,0.2
	C12,35.1,13,35,14,35c1.4,0,2.2,0,2.7,0.1c0.8,0.2,2.9-0.1,4,1.6c1.2,2,2.5,2.4,2.8,3.6c0.2,1-0.2,1.7-0.1,2.2c0,0.5-0.1,3-0.9,4.9
	c-0.8,1.9-2,6.2-2.3,7.2c-0.3,0.9-1,4.5-1.2,5.3c-0.1,0.8-0.8,2.1-1.3,2.5c-0.5,0.4-1.4,1.9-2.2,2.7c-0.8,0.8-1.6,2-2.5,3.7
	c-1,1.7-1.9,5-1.9,5s-0.7,3.2-1.6,6.7c-0.9,3.4-0.8,5.5-1.4,10c-0.5,4.5-1.7,9,2.4,1.1c1.5-2.8,1.5-2.8,3-7.1c0.8-2.4,1.1-2,1.3-3.3
	c0,0,0.1-0.7,0.5-1c0.3-0.4,0.5-1.6,0.9-2.1c0.4-0.6,0.7-0.7,0.7-0.7c-0.7,3-0.3,4.9,0.1,8.5c0.3,3.4,1.5,6.6,1.6,9.2
	c0.1,2.5,1.2,5.9,1.7,6.5c0.5,0.6,1.6,2.6,1.9,4.3c0.3,1.7,0.8,2.7,1.1,3.1c0.3,0.4,0.4,0.5,0.4,1.2c0,0.7-0.8,1.3-0.6,1.8
	c0.2,0.6,0.1,0.9-0.1,1.3c-0.1,0.4-0.5,0.9-1.1,0.9c-0.6,0-1.1,0.2-1.8,0.3c-0.6,0.1-0.7,0.3-1.7,0.1c-1-0.2-1.2,0.5-1.2,0.5h11.7
	c-0.1,0,0.4-0.6,0.9-0.2c0.9,0.6,0.7,0.2,0.7,0.2c-0.1-0.7-0.8-1-1.5-1c-0.7-0.1-1-0.9-1-1.5c0-0.6-0.2-2.3-0.6-2.8
	c-0.3-0.5-0.4-0.9-0.6-1.5c-0.2-0.6-0.1-0.8,1.3,0.5c1.4,1.3,3.7,2.2,5.3,2.5c1.5,0.3,1.6,0.3,2.4,0.5c0.7,0.1,1.7,0.3,2.3,0.2
	c0.7-0.2,1.2,0,2-0.6c0.9-0.6,0.9-0.9,0.9-1.2c0-0.3,0.6-0.7,0.6-0.7c-0.1,0.2-0.1,0.6-0.1,1.2c-0.1,0.6,0,1.2-0.8,1.6
	c-0.8,0.4-1.2,1-1.5,1.3c-0.2,0.3-0.3,0.5-1,0.7c-0.7,0.2-0.3,0.7-0.7,0.7c-0.4,0-0.9,0.3-0.9,0.3h12.6c0,0,0.2-0.1-0.2-0.7
	c-0.3-0.6-0.9-0.1-1.5-0.6c-0.6-0.5-0.6-0.3-1-0.4c-0.3-0.1-0.8-0.1-0.7-1.1c0.1-1-0.1-2.1-0.2-2.6c-0.1-0.6,0.2-0.8,0.6-1.1
	c0.4-0.3,0.9-1.5,1-1.9c0.1-0.4,0.1-2.2,0.7-3.6c0.7-1.4,1.8-5.4,2-7.1c0.2-1.4,0.1-7.4,0-10.3c0.1-0.1,0.1-0.3,0.2-0.4
	c1-1.9,1.4-2.6,2.2-3.9c1.9,1.5,1.7,1.7,2.2,2.8c0.5,1.1,1.1,1.4,1.4,2.1c0.2,0.7,0.8,2,0.9,2.6c0.1,0.5,0.3,1.5,0.8,4.1
	c0.7,3.9,0.9,3.1,1.1,4c0.2,0.9,0.7-0.1,0.7-0.1c2.1-4.9,0.9-13.2,0.5-16c-0.3-2.2-1.6-4.2-2.7-6.3c0.4-0.2,0.7-0.2,1.1-0.8
	c0,0,0.9-0.1,1.3-0.5c0.4-0.4,1.4-1.2,1.9-1.9s1.5-1.2,1.5-1.2c-0.8,3.3,0.7,7.9,0,11.7c-0.7,3.7-0.1,7.5,0,10.4
	c0.1,2.8,1.3,6.6,1.9,7.3c0.6,0.7,1.8,2.9,2.1,4.9c0.4,2,0.8,3.1,1.2,3.5c0.4,0.5,0.4,0.6,0.4,1.3s0.1,1.4,0.4,2.1
	c0.2,0.7,0.1,1-0.1,1.5c-0.1,0.5-0.6,1-1.3,1c-0.7,0-1.3,0.2-2,0.3c-0.7,0.1-0.8,0.3-1.9,0.1c-1.1-0.2-1.3,0.6-1.3,0.6h13.1
	c-0.1-0.1,0.4-0.6,1-0.2c1,0.7,0.7,0.2,0.7,0.2c-0.1-0.8-0.9-1.1-1.7-1.2c-0.8-0.1-1.1-1-1.2-1.7c0-0.7-0.3-2.6-0.6-3.2
	c-0.4-0.5-0.4-1-0.6-1.7c-0.2-0.7-0.1-0.9,1.4,0.6c1.5,1.5,4.2,2.5,5.9,2.8c1.7,0.3,2.4,0.5,3,1.1c0.6,0.6,1.3,0.7,1.9,0.4
	c0.6-0.3,1.6-0.8,2.6-1.4c1-0.7,1.2-1.9,1.2-2.2c0-0.3,0.7-1.3,0.7-1.3c-0.1,0.2-0.1,1-0.2,1.7c-0.1,0.7-0.2,2.4-1.1,2.8
	c-0.9,0.4-1.4,1.1-1.6,1.5c-0.3,0.3-0.4,0.5-1.1,0.8c-0.7,0.3-0.4,0.7-0.8,0.7c-0.4,0-1,0.4-1,0.4H98c0,0,0.2-0.1-0.2-0.8
	c-0.4-0.7-1-0.1-1.7-0.7c-0.7-0.6-0.7-0.3-1.1-0.4c-0.4-0.1-0.9-0.1-0.8-1.2c0.1-1.1-0.1-2.3-0.2-2.9c-0.1-0.6,0.2-0.9,0.7-1.2
	c0.5-0.3,1.1-1.7,1.1-2.1c0.1-0.5,0.1-2.5,0.8-4c0.7-1.6,2-6.1,2.3-8c0.3-1.9,0.1-11.8-0.2-13.1c-0.2-1.3-0.9-7.3-0.9-8
	c0-0.7-0.1-2.9-0.2-3.2c-0.1-0.4-0.1-1.9-0.1-1.9c0.3,0.9,0.6,2.4,3,4.2c2.3,1.8,3.9,6.1,4.4,7.3c0.5,1.2,1.3,1.6,1.5,2.3
	c0.3,0.8,1,3.2,1.3,3.8c0.4,0.6,0.7,1.4,1.2,4.4c0.8,4.4,1,3.5,1.2,4.4c0.3,1,0.8-0.1,0.8-0.1C113.4,88.1,110.5,79.6,110,76.5z"/>
</svg>
